# xmcd
#
# Track frame offsets: 
#        150
#        24421
#        49173
#        70496
#        81387
#        101747
#        128873
#        156188
#        188437
#        210725
#        236303
#
# Disc length: 3375 seconds
#
# Revision: 4
# Processed by: cddbd v1.5.2PL0 Copyright (c) Steve Scherf et al.
# Submitted via: ExactAudioCopy v0.95b4
#
DISCID=8c0d2d0b,910d2d0b
DTITLE=Pacou - State Of Mind
DYEAR=2000
DGENRE=Techno-Industrial
TTITLE0=Emphasis
TTITLE1=Fuel
TTITLE2=Format #2
TTITLE3=Intermission
TTITLE4=Open
TTITLE5=Iron City
TTITLE6=Vertigo
TTITLE7=Think Twice
TTITLE8=Beyond
TTITLE9=Friction
TTITLE10=Surge
EXTD=
EXTT0=
EXTT1=
EXTT2=
EXTT3=
EXTT4=
EXTT5=
EXTT6=
EXTT7=
EXTT8=
EXTT9=
EXTT10=
PLAYORDER=
